<?xml version="1.0" standalone="no"?><!DOCTYPE svg PUBLIC "-//W3C//DTD SVG 1.1//EN" "http://www.w3.org/Graphics/SVG/1.1/DTD/svg11.dtd"><svg t="1534207267825" class="icon" style="" viewBox="0 0 1024 1024" version="1.1" xmlns="http://www.w3.org/2000/svg" p-id="7384" xmlns:xlink="http://www.w3.org/1999/xlink" width="200" height="200"><defs><style type="text/css"></style></defs><path d="M843.73573 17.258427H179.05618A65.409438 65.409438 0 0 0 114.337079 83.243146v857.513708A65.409438 65.409438 0 0 0 179.05618 1006.741573h517.752809c2.70382 0 215.557753-201.348315 212.853932-201.348315L908.224719 83.243146A65.409438 65.409438 0 0 0 843.73573 17.258427z" fill="#FFFFFF" p-id="7385"></path><path d="M696.808989 1024h-517.752809A82.610337 82.610337 0 0 1 97.308764 940.756854V83.243146A82.610337 82.610337 0 0 1 179.05618 0h664.67955A82.610337 82.610337 0 0 1 925.483146 83.243146l1.438202 722.150112c0 9.319551 0 9.319551-110.856629 114.135731S705.668315 1024 696.808989 1024z m-517.752809-989.483146a48.035955 48.035955 0 0 0-47.230562 48.726292v857.513708a48.035955 48.035955 0 0 0 47.230562 48.726292h512c27.383371-24.219326 174.712809-163.55236 201.751011-190.763146l-1.438202-715.419326A48.035955 48.035955 0 0 0 843.73573 34.516854z" fill="" p-id="7386"></path><path d="M708.314607 1006.741573l-34.516854-0.345169 1.725843-164.933033a65.582022 65.582022 0 0 1 64.949213-65.927191l163.437303 1.093033v34.516854l-163.437303-0.920449a31.065169 31.065169 0 0 0-30.374831 31.582921z" fill="" p-id="7387"></path><path d="M268.224719 261.752809l448.719101 0 0 34.516854-448.719101 0 0-34.516854Z" fill="" p-id="7388"></path><path d="M271.101124 465.977528l448.719101 0 0 34.516854-448.719101 0 0-34.516854Z" fill="" p-id="7389"></path><path d="M271.101124 673.078652l264.629213 0 0 34.516854-264.629213 0 0-34.516854Z" fill="" p-id="7390"></path></svg>