<?xml version="1.0" standalone="no"?><!DOCTYPE svg PUBLIC "-//W3C//DTD SVG 1.1//EN" "http://www.w3.org/Graphics/SVG/1.1/DTD/svg11.dtd"><svg t="1533698455563" class="icon" style="" viewBox="0 0 1024 1024" version="1.1" xmlns="http://www.w3.org/2000/svg" p-id="1664" xmlns:xlink="http://www.w3.org/1999/xlink" width="200" height="200"><defs><style type="text/css"></style></defs><path d="M240 384l-224 0C11.712 384 7.936 385.536 4.736 388.736S0 395.712 0 400s1.536 8.064 4.736 11.264l112 112C119.936 526.4 123.712 528 128 528s8.064-1.6 11.264-4.736l112-112C254.464 408.064 256 404.288 256 400S254.464 391.936 251.264 388.736 244.288 384 240 384z" p-id="1665"></path><path d="M896 64 576 64 448 64 64 64C28.608 64 0 92.608 0 128l0 64c0 35.392 28.608 64 64 64l320 0 0 576c0 35.392 28.608 64 64 64l448 0c35.392 0 64-28.608 64-64L960 128C960 92.608 931.392 64 896 64zM800 704l-256 0C526.336 704 512 689.664 512 672S526.336 640 544 640l256 0c17.664 0 32 14.336 32 32S817.664 704 800 704zM800 576l-256 0C526.336 576 512 561.664 512 544S526.336 512 544 512l256 0C817.664 512 832 526.336 832 544S817.664 576 800 576zM800 448l-256 0C526.336 448 512 433.664 512 416S526.336 384 544 384l256 0C817.664 384 832 398.336 832 416S817.664 448 800 448zM800 320l-256 0C526.336 320 512 305.664 512 288S526.336 256 544 256l256 0C817.664 256 832 270.336 832 288S817.664 320 800 320z" p-id="1666"></path></svg>