<?xml version="1.0" standalone="no"?><!DOCTYPE svg PUBLIC "-//W3C//DTD SVG 1.1//EN" "http://www.w3.org/Graphics/SVG/1.1/DTD/svg11.dtd"><svg t="1534207254011" class="icon" style="" viewBox="0 0 1024 1024" version="1.1" xmlns="http://www.w3.org/2000/svg" p-id="7148" xmlns:xlink="http://www.w3.org/1999/xlink" width="200" height="200"><defs><style type="text/css"></style></defs><path d="M934.268041 36.948454h-844.536082C47.505155 36.948454 10.556701 73.896907 10.556701 116.123711v791.752578c0 42.226804 36.948454 79.175258 79.175258 79.175257h844.536082c42.226804 0 79.175258-36.948454 79.175258-79.175257v-791.752578c0-42.226804-36.948454-79.175258-79.175258-79.175257z m-184.742268 52.783505c15.835052 0 26.391753 10.556701 26.391753 26.391752v211.134021c0 15.835052-10.556701 26.391753-26.391753 26.391753h-475.051546c-15.835052 0-26.391753-10.556701-26.391753-26.391753v-211.134021c0-15.835052 10.556701-26.391753 26.391753-26.391752h475.051546z m211.134021 818.14433c0 15.835052-10.556701 26.391753-26.391753 26.391752h-844.536082c-15.835052 0-26.391753-10.556701-26.391753-26.391752v-791.752578c0-15.835052 10.556701-26.391753 26.391753-26.391752h110.845361c-5.278351 10.556701-5.278351 15.835052-5.278351 26.391752v211.134021c0 42.226804 36.948454 79.175258 79.175258 79.175258h475.051546c42.226804 0 79.175258-36.948454 79.175258-79.175258v-211.134021c0-10.556701 0-15.835052-5.278351-26.391752h110.845361c15.835052 0 26.391753 10.556701 26.391753 26.391752v791.752578z" fill="#040000" p-id="7149"></path><path d="M654.515464 311.42268c52.783505 0 89.731959-42.226804 89.731959-89.731958s-42.226804-89.731959-89.731959-89.731959-89.731959 42.226804-89.731959 89.731959 36.948454 89.731959 89.731959 89.731958z m0-126.680412c21.113402 0 36.948454 15.835052 36.948454 36.948454s-15.835052 36.948454-36.948454 36.948453c-21.113402 0-36.948454-15.835052-36.948454-36.948453s15.835052-36.948454 36.948454-36.948454z" fill="#040000" p-id="7150"></path></svg>